<?xml version="1.0" encoding="UTF-8"?>
<svg id="Ebene_1" data-name="Ebene 1" xmlns="http://www.w3.org/2000/svg" version="1.1" viewBox="0 0 57.4 58.2">
  <defs>
    <style>
      .cls-1 {
        fill: #c7d2fe;
      }

      .cls-1, .cls-2 {
        stroke-width: 0px;
      }

      .cls-2 {
        fill: #1c2c49;
      }

      .cls-3 {
        fill: none;
        stroke: #1c2c49;
        stroke-linecap: round;
        stroke-miterlimit: 10;
      }
    </style>
  </defs>
  <circle class="cls-1" cx="28.7" cy="29.1" r="16"/>
  <path class="cls-2" d="M34.3,30.2c-1,0-1.9-.4-2.6-1.1-.7-.7-1.1-1.7-1.1-2.8,0-.5.4-.8.8-.8s.6.2.7.5c.2.4.4.7.7,1,.6.6,1.4.9,2.2.9s1.6-.3,2.2-.9.2-.2.2-.2c0,0,.1,0,.2,0s0,0,0,0c0,0,.2.1.2.3-.1.8-.5,1.5-1,2.1s-1.6,1.1-2.6,1.1h0Z"/>
  <path class="cls-2" d="M22.6,30.2c-1,0-1.9-.4-2.6-1.1s-.9-1.3-1-2.1c0-.1,0-.2.1-.3,0,0,0,0,.1,0,0,0,.1,0,.2,0,0,0,.1.2.2.2.6.6,1.4.9,2.2.9s1.6-.3,2.2-.9c.3-.3.5-.6.7-1,.1-.3.4-.5.7-.5s.8.3.8.8c0,1-.3,2-1.1,2.8s-1.6,1.1-2.6,1.1h0Z"/>
  <path class="cls-3" d="M25.7,33.2l1.2-.7c1.1-.6,2.5-.6,3.6,0l1.2.7"/>
</svg>